#!OML:ASF F:\VICON\USERDATA\INSTALL\rory3\rory3.ASF
:FULLY-SPECIFIED
:DEGREES
280
root 0.757826 18.18 -0.706786 -10.8727 -84.9603 10.8128
lowerback 8.42273 0.518366 -1.4162
upperback -0.129596 0.559294 0.370038
thorax -4.87946 0.311503 1.11179
lowerneck -21.1268 -7.0325 -12.5109
upperneck 26.518 -9.56223 11.1494
head 13.7108 -4.14401 4.74545
rclavicle 1.47473e-014 -4.17448e-015
rhumerus -35.437 -12.7988 -82.1641
rradius 28.2539
rwrist 8.94848
rhand -14.028 9.21112
rfingers 7.12502
rthumb 12.1021 -20.4189
lclavicle 1.47473e-014 -4.17448e-015
lhumerus -34.9613 6.53074 83.841
lradius 33.0739
lwrist -7.75558
lhand -17.7272 23.3057
lfingers 7.12502
lthumb 8.53356 53.1133
rfemur -5.04414 0.808578 22.6843
rtibia 22.4623
rfoot -12.5551 -4.75319
rtoes 10.3081
lfemur 0.851382 -5.00193 -21.1871
ltibia 6.11338
lfoot -3.63705 -8.2807
ltoes -4.91502
281
root 0.755315 18.1803 -0.701949 -10.7732 -85.0367 10.7517
lowerback 8.4094 0.473074 -1.37234
upperback -0.141188 0.504197 0.382209
thorax -4.88207 0.283504 1.1067
lowerneck -21.1411 -7.01821 -12.6169
upperneck 26.5212 -9.51526 11.1935
head 13.7173 -4.12849 4.79124
rclavicle -2.04624e-014 -3.97569e-016
rhumerus -35.4378 -12.5512 -82.3257
rradius 28.3211
rwrist 8.86439
rhand -13.9575 9.2676
rfingers 7.12502
rthumb 12.17 -20.3584
lclavicle -2.04624e-014 -3.97569e-016
lhumerus -34.9174 6.33446 83.8224
lradius 32.9684
lwrist -7.12661
lhand -18.4634 23.7091
lfingers 7.12502
lthumb 7.8231 53.5444
rfemur -5.10752 0.733562 22.6939
rtibia 22.5044
rfoot -12.5975 -4.72427
rtoes 9.71465
lfemur 0.927542 -4.98221 -21.191
ltibia 5.92032
lfoot -3.50301 -8.1984
ltoes -4.89259
282
root 0.753428 18.1819 -0.70008 -10.8312 -85.1028 10.8617
lowerback 8.38119 0.450919 -1.36727
upperback -0.139532 0.475195 0.373406
thorax -4.86345 0.268822 1.09847
lowerneck -21.2988 -7.00712 -12.6181
upperneck 26.6436 -9.48759 11.1772
head 13.797 -4.11409 4.79284
rclavicle 9.06955e-016 7.95139e-016
rhumerus -35.4382 -12.2945 -82.5431
rradius 28.425
rwrist 8.73129
rhand -14.2794 9.11956
rfingers 7.12502
rthumb 11.8597 -20.5246
lclavicle 9.06955e-016 7.95139e-016
lhumerus -34.675 5.68815 83.9364
lradius 32.6002
lwrist -6.19495
lhand -19.1155 23.846
lfingers 7.12502
lthumb 7.19362 53.7038
rfemur -5.1994 0.79856 22.6972
rtibia 22.574
rfoot -12.6021 -4.73819
rtoes 9.97607
lfemur 1.01339 -4.96995 -21.1944
ltibia 5.66595
lfoot -3.31245 -8.10191
ltoes -4.14319
283
root 0.751379 18.1821 -0.698549 -12.2728 -85.1591 12.339
lowerback 8.35605 0.464794 -1.47144
upperback -0.12921 0.482533 0.347693
thorax -4.83945 0.274418 1.1296
lowerneck -21.4689 -7.01169 -12.6304
upperneck 26.8262 -9.45979 11.0873
head 13.9009 -4.11004 4.7679
rclavicle -1.99406e-014 9.93923e-016
rhumerus -35.4339 -12.2691 -82.6326
rradius 28.4517
rwrist 8.67319
rhand -14.4788 9.21296
rfingers 7.12502
rthumb 11.6674 -20.4422
lclavicle -1.99406e-014 9.93923e-016
lhumerus -34.5106 5.27965 83.9974
lradius 32.3253
lwrist -5.57299
lhand -19.1977 23.8107
lfingers 7.12502
lthumb 7.11434 53.6711
rfemur -5.26776 0.88336 22.5672
rtibia 22.6533
rfoot -12.5932 -4.65587
rtoes 10.5271
lfemur 1.13672 -4.94374 -21.3374
ltibia 5.40176
lfoot -3.10877 -8.10005
ltoes -3.30783
284
root 0.747573 18.1807 -0.696792 -14.4167 -85.2261 14.5164
lowerback 8.30718 0.491383 -1.57823
upperback -0.122637 0.505098 0.281637
thorax -4.80617 0.287071 1.1185
lowerneck -21.5321 -7.03219 -12.6629
upperneck 26.8912 -9.45602 11.0262
head 13.9394 -4.11749 4.75044
rclavicle 1.09953e-014 -1.59028e-015
rhumerus -35.4314 -12.2037 -82.7573
rradius 28.507
rwrist 8.50106
rhand -14.4084 9.24865
rfingers 7.12502
rthumb 11.7353 -20.4026
lclavicle 1.09953e-014 -1.59028e-015
lhumerus -34.4048 5.33945 83.8704
lradius 32.0896
lwrist -5.48775
lhand -19.138 23.7996
lfingers 7.12502
lthumb 7.17195 53.6581
rfemur -5.33352 0.909462 22.3861
rtibia 22.7385
rfoot -12.6315 -4.59317
rtoes 10.2777
lfemur 1.28644 -4.89056 -21.5557
ltibia 5.1012
lfoot -2.9976 -8.17879
ltoes -3.79389
285
root 0.744272 18.18 -0.697893 -15.2606 -85.3158 15.4017
lowerback 8.27819 0.519676 -1.60922
upperback -0.135955 0.539436 0.262586
thorax -4.80496 0.304726 1.112
lowerneck -21.4791 -7.0425 -12.7053
upperneck 26.8309 -9.44566 11.0037
head 13.9019 -4.12103 4.74888
rclavicle -1.24737e-014 -1.39149e-015
rhumerus -35.4336 -12.2373 -82.8016
rradius 28.5317
rwrist 8.49009
rhand -14.0421 9.312
rfingers 7.12502
rthumb 12.0885 -20.3188
lclavicle -1.24737e-014 -1.39149e-015
lhumerus -34.34 5.54056 83.7384
lradius 31.8732
lwrist -5.55949
lhand -19.0343 23.9481
lfingers 7.12502
lthumb 7.272 53.8032
rfemur -5.39851 1.04596 22.3622
rtibia 22.8071
rfoot -12.6473 -4.68159
rtoes 9.86849
lfemur 1.37959 -4.83951 -21.6258
ltibia 4.86674
lfoot -2.93431 -8.10655
ltoes -4.6059
286
root 0.740621 18.1789 -0.698309 -15.4784 -85.3706 15.6129
lowerback 8.28848 0.545244 -1.61231
upperback -0.125739 0.573093 0.265941
thorax -4.80124 0.321319 1.11305
lowerneck -21.4701 -7.07443 -12.8397
upperneck 26.8435 -9.48109 11.1057
head 13.926 -4.13816 4.80775
rclavicle -6.31141e-015 -3.97569e-016
rhumerus -35.4341 -12.3368 -82.8282
rradius 28.5978
rwrist 8.43299
rhand -13.7947 9.19081
rfingers 7.12502
rthumb 12.327 -20.4258
lclavicle -6.31141e-015 -3.97569e-016
lhumerus -34.2923 5.81108 83.6068
lradius 31.7344
lwrist -5.72736
lhand -18.682 24.0531
lfingers 7.12502
lthumb 7.61213 53.8961
rfemur -5.3947 1.18403 22.3757
rtibia 22.8516
rfoot -12.6583 -4.73488
rtoes 9.73451
lfemur 1.47229 -4.83509 -21.6333
ltibia 4.7181
lfoot -2.88189 -7.97602
ltoes -5.23039
287
root 0.734941 18.179 -0.696166 -15.1146 -85.4396 15.2268
lowerback 8.27017 0.558015 -1.56313
upperback -0.105434 0.595742 0.278443
thorax -4.77005 0.331045 1.09579
lowerneck -21.4522 -7.08529 -12.8657
upperneck 26.8468 -9.49205 11.1095
head 13.9272 -4.14587 4.81188
rclavicle -6.34869e-015 3.97569e-016
rhumerus -35.4033 -12.0685 -83.0339
rradius 28.6378
rwrist 8.05699
rhand -13.9484 9.02073
rfingers 7.12502
rthumb 12.1788 -20.6047
lclavicle -6.34869e-015 3.97569e-016
lhumerus -34.2721 5.90139 83.4879
lradius 31.6272
lwrist -5.78353
lhand -18.6583 24.1613
lfingers 7.12502
lthumb 7.63498 54.0035
rfemur -5.35406 1.24467 22.4113
rtibia 22.8537
rfoot -12.6719 -4.703
rtoes 9.87613
lfemur 1.53277 -4.82938 -21.5937
ltibia 4.69592
lfoot -2.9079 -7.92594
ltoes -5.45622
288
root 0.731029 18.1785 -0.694862 -15.3998 -85.5078 15.4834
lowerback 8.28924 0.583583 -1.58012
upperback -0.0937673 0.628665 0.297972
thorax -4.77007 0.347803 1.12151
lowerneck -21.443 -7.08651 -12.8829
upperneck 26.82 -9.46892 11.0665
head 13.9084 -4.14252 4.80077
rclavicle 9.81499e-016 -2.18663e-015
rhumerus -35.3681 -11.7914 -83.149
rradius 28.6593
rwrist 7.84085
rhand -14.0396 8.92887
rfingers 7.12502
rthumb 12.0909 -20.7018
lclavicle 9.81499e-016 -2.18663e-015
lhumerus -34.3305 5.38123 83.5234
lradius 31.6453
lwrist -5.32438
lhand -18.9084 24.3033
lfingers 7.12502
lthumb 7.39355 54.1541
rfemur -5.30736 1.27674 22.3844
rtibia 22.834
rfoot -12.6857 -4.59263
rtoes 10.6467
lfemur 1.58009 -4.81077 -21.6194
ltibia 4.72306
lfoot -3.02053 -7.78844
ltoes -6.04746
289
root 0.72754 18.1778 -0.693509 -14.9835 -85.5456 15.0263
lowerback 8.31573 0.62571 -1.51815
upperback -0.0677588 0.692621 0.349043
thorax -4.75975 0.378156 1.13174
lowerneck -21.4447 -7.14465 -13.0613
upperneck 26.7967 -9.49407 11.1
head 13.9161 -4.16635 4.83935
rclavicle -7.62836e-015 3.18055e-015
rhumerus -35.3389 -12.0955 -82.9522
rradius 28.6461
rwrist 8.1238
rhand -14.022 8.94126
rfingers 7.12502
rthumb 12.1079 -20.6884
lclavicle -7.62836e-015 3.18055e-015
lhumerus -34.3609 4.54303 83.7288
lradius 31.7017
lwrist -4.64581
lhand -18.8892 24.4428
lfingers 7.12502
lthumb 7.41213 54.293
rfemur -5.23063 1.29173 22.4093
rtibia 22.7907
rfoot -12.7053 -4.47885
rtoes 11.5109
lfemur 1.58859 -4.83585 -21.5944
ltibia 4.83497
lfoot -3.19177 -7.59835
ltoes -6.48709
290
root 0.723129 18.1789 -0.691566 -14.8547 -85.574 14.8419
lowerback 8.32481 0.652134 -1.46097
upperback -0.0273686 0.733615 0.3637
thorax -4.72344 0.39652 1.10988
lowerneck -21.4551 -7.16449 -13.0998
upperneck 26.8148 -9.49608 11.0625
head 13.9262 -4.17527 4.83043
rclavicle 1.64619e-014 1.98785e-016
rhumerus -35.2621 -12.4081 -82.8175
rradius 28.5721
rwrist 8.3746
rhand -13.925 9.04197
rfingers 7.12502
rthumb 12.2014 -20.5822
lclavicle 1.64619e-014 1.98785e-016
lhumerus -34.2704 3.92418 83.9202
lradius 31.5736
lwrist -4.29831
lhand -18.9439 24.518
lfingers 7.12502
lthumb 7.35926 54.37
rfemur -5.1196 1.31857 22.4246
rtibia 22.7426
rfoot -12.7201 -4.43437
rtoes 11.3816
lfemur 1.62214 -4.86383 -21.5876
ltibia 4.9597
lfoot -3.25308 -7.4844
ltoes -6.11336
291
root 0.719582 18.1777 -0.690711 -14.786 -85.6084 14.6785
lowerback 8.38746 0.672587 -1.41561
upperback 0.015114 0.762956 0.345696
thorax -4.71439 0.409132 1.0617
lowerneck -21.4546 -7.14932 -12.9092
upperneck 26.8243 -9.47708 10.8629
head 13.9021 -4.17206 4.71888
rclavicle 5.2181e-016 -3.57812e-015
rhumerus -35.2115 -12.5106 -82.8503
rradius 28.5416
rwrist 8.54398
rhand -13.9504 9.16334
rfingers 7.12502
rthumb 12.177 -20.4622
lclavicle 5.2181e-016 -3.57812e-015
lhumerus -34.1775 3.55558 83.9839
lradius 31.4162
lwrist -4.41494
lhand -18.9846 24.4219
lfingers 7.12502
lthumb 7.31998 54.2753
rfemur -4.95481 1.33224 22.4576
rtibia 22.6583
rfoot -12.6802 -4.4744
rtoes 10.7533
lfemur 1.62426 -4.88468 -21.5948
ltibia 5.23353
lfoot -3.44533 -7.35139
ltoes -6.79406
292
root 0.715184 18.176 -0.691843 -14.8693 -85.6196 14.7144
lowerback 8.41053 0.662912 -1.42669
upperback 0.0402488 0.747822 0.334107
thorax -4.70068 0.40136 1.05771
lowerneck -21.4928 -7.1325 -12.7744
upperneck 26.8581 -9.43335 10.6673
head 13.8966 -4.16228 4.62415
rclavicle 1.85118e-015 7.95139e-016
rhumerus -35.143 -12.5511 -82.8957
rradius 28.4842
rwrist 8.73615
rhand -14.1002 9.25489
rfingers 7.12502
rthumb 12.0324 -20.3792
lclavicle 1.85118e-015 7.95139e-016
lhumerus -34.1592 3.32722 83.968
lradius 31.3407
lwrist -4.56367
lhand -18.7618 24.2212
lfingers 7.12502
lthumb 7.53509 54.067
rfemur -4.82861 1.37837 22.4748
rtibia 22.5506
rfoot -12.641 -4.57863
rtoes 10.5656
lfemur 1.5224 -4.92536 -21.6105
ltibia 5.56719
lfoot -3.6169 -7.22719
ltoes -6.88916
293
root 0.708612 18.1759 -0.694184 -13.6152 -85.6525 13.456
lowerback 8.37081 0.616195 -1.3774
upperback 0.0354917 0.693653 0.386598
thorax -4.68174 0.374019 1.09152
lowerneck -21.5137 -7.09019 -12.7338
upperneck 26.9323 -9.34188 10.5193
head 13.9065 -4.13732 4.57665
rclavicle -2.00027e-014 -3.97569e-015
rhumerus -35.0608 -12.3931 -82.951
rradius 28.3668
rwrist 8.77198
rhand -14.3244 9.35606
rfingers 7.12502
rthumb 11.8163 -20.2906
lclavicle -2.00027e-014 -3.97569e-015
lhumerus -34.2005 3.23925 83.9613
lradius 31.2668
lwrist -4.73555
lhand -18.3444 24.1624
lfingers 7.12502
lthumb 7.93796 53.9934
rfemur -4.75801 1.55615 22.6168
rtibia 22.4541
rfoot -12.6018 -4.74849
rtoes 10.6756
lfemur 1.37194 -4.97059 -21.4949
ltibia 5.88619
lfoot -3.79978 -7.13141
ltoes -7.03517
